<svg xmlns="http://www.w3.org/2000/svg" viewBox="0 0 500 400" width="500" height="400">
  <defs>
    <linearGradient id="bg" x1="0%" y1="0%" x2="100%" y2="100%">
      <stop offset="0%" style="stop-color:#3B82F6;stop-opacity:0.08"/>
      <stop offset="100%" style="stop-color:#10B981;stop-opacity:0.08"/>
    </linearGradient>
    <linearGradient id="primary" x1="0%" y1="0%" x2="100%" y2="100%">
      <stop offset="0%" style="stop-color:#3B82F6"/>
      <stop offset="100%" style="stop-color:#2563EB"/>
    </linearGradient>
    <linearGradient id="green" x1="0%" y1="0%" x2="100%" y2="100%">
      <stop offset="0%" style="stop-color:#10B981"/>
      <stop offset="100%" style="stop-color:#059669"/>
    </linearGradient>
  </defs>
  <rect width="500" height="400" rx="20" fill="url(#bg)"/>
  <g transform="translate(80,60)">
    <circle cx="170" cy="160" r="80" fill="url(#primary)" opacity="0.10"/>
    <circle cx="170" cy="160" r="55" fill="url(#primary)" opacity="0.15"/>
    <circle cx="170" cy="160" r="35" fill="url(#primary)" opacity="0.25"/>
    <circle cx="170" cy="160" r="18" fill="url(#primary)" opacity="0.40"/>
    <g transform="translate(140,130)">
      <rect x="12" y="18" width="36" height="28" rx="6" fill="#fff" opacity="0.9"/>
      <line x1="18" y1="26" x2="42" y2="26" stroke="#3B82F6" stroke-width="2" stroke-linecap="round"/>
      <line x1="18" y1="32" x2="36" y2="32" stroke="#3B82F6" stroke-width="2" stroke-linecap="round"/>
      <line x1="18" y1="38" x2="30" y2="38" stroke="#3B82F6" stroke-width="2" stroke-linecap="round"/>
    </g>
    <circle cx="170" cy="115" r="12" fill="#fff" opacity="0.8"/>
    <path d="M160 125 Q170 140 180 125" stroke="#fff" stroke-width="2" fill="none" stroke-linecap="round" opacity="0.7"/>
  </g>
  <g transform="translate(290,90)">
    <rect x="0" y="0" width="100" height="130" rx="12" fill="#fff" opacity="0.85" stroke="#E5E7EB" stroke-width="1"/>
    <circle cx="22" cy="22" r="10" fill="#3B82F6" opacity="0.2"/>
    <text x="22" y="26" text-anchor="middle" font-size="10">🔒</text>
    <line x1="44" y1="18" x2="88" y2="18" stroke="#3B82F6" stroke-width="2" stroke-linecap="round" opacity="0.6"/>
    <line x1="44" y1="26" x2="72" y2="26" stroke="#D1D5DB" stroke-width="2" stroke-linecap="round"/>
    <line x1="12" y1="46" x2="88" y2="46" stroke="#D1D5DB" stroke-width="1.5" stroke-linecap="round"/>
    <line x1="12" y1="58" x2="76" y2="58" stroke="#D1D5DB" stroke-width="1.5" stroke-linecap="round"/>
    <line x1="12" y1="70" x2="82" y2="70" stroke="#D1D5DB" stroke-width="1.5" stroke-linecap="round"/>
    <line x1="12" y1="82" x2="64" y2="82" stroke="#D1D5DB" stroke-width="1.5" stroke-linecap="round"/>
    <circle cx="50" cy="108" r="14" fill="#10B981" opacity="0.15"/>
    <text x="50" y="113" text-anchor="middle" font-size="12">💬</text>
  </g>
  <g transform="translate(160,250)">
    <circle cx="60" cy="30" r="50" fill="url(#green)" opacity="0.08"/>
    <circle cx="60" cy="30" r="32" fill="url(#green)" opacity="0.12"/>
    <g transform="translate(35,10)">
      <circle cx="25" cy="12" r="8" fill="#10B981" opacity="0.5"/>
      <path d="M17 24 Q25 34 33 24" stroke="#10B981" stroke-width="2" fill="none" stroke-linecap="round" opacity="0.4"/>
      <rect x="6" y="22" width="38" height="8" rx="4" fill="#10B981" opacity="0.15"/>
    </g>
  </g>
</svg>
